<svg id="Layer_1" data-name="Layer 1" xmlns="http://www.w3.org/2000/svg" xmlns:xlink="http://www.w3.org/1999/xlink" viewBox="0 0 453.54 127.56"><defs><style>.cls-1{fill:none;}.cls-2{fill:url(#linear-gradient);}</style><linearGradient id="linear-gradient" y1="64.17" x2="453.55" y2="64.17" gradientTransform="translate(453.55 227.56) rotate(180)" gradientUnits="userSpaceOnUse"><stop offset="0" stop-color="#3732a4"/><stop offset="1" stop-color="#7082ff"/></linearGradient></defs><title>BottomBanner</title><path class="cls-1" d="M368.51,227.14l-28.35,0h28.35Z" transform="translate(0 -99.61)"/><path class="cls-1" d="M396.9,227.14v0h28.3Z" transform="translate(0 -99.61)"/><path class="cls-1" d="M170.12,227.15v0h28.31Z" transform="translate(0 -99.61)"/><path class="cls-1" d="M141.73,227.15l-28.16-.08v.1h28.17Z" transform="translate(0 -99.61)"/><path class="cls-1" d="M85,227.07l-28.34.1H85.05S85,227.11,85,227.07Z" transform="translate(0 -99.61)"/><path class="cls-2" d="M0,213v14.18H453.55V213h0V142.13a14.17,14.17,0,1,0-28.34,0v42.52c0,14.17-14.18,14.17-14.18,14.17s-13.23,0-14.12-12.79V113.8a14.2,14.2,0,0,0-28.39,0v56.67c0,14.18-14.18,14.18-14.18,14.18s-14.17,0-14.17-14.18A14.17,14.17,0,0,0,326,156.3h0a14.17,14.17,0,0,0-14.18,14.17v28.35c0,14.17-14.17,14.17-14.17,14.17s-14.17,0-14.17-14.17a14.18,14.18,0,0,0-28.35,0S255.12,213,241,213s-14.18-14.17-14.18-14.17V142.13a14.17,14.17,0,1,0-28.34,0v28.34c0,14.18-14.18,14.18-14.18,14.18s-13.39,0-14.13-13v-1.12a14.2,14.2,0,0,0-28.39,0v14.16c0,14.17-14.17,14.17-14.17,14.17s-12.36,0-14-11.55V142.22a14.27,14.27,0,1,0-28.53,0V156.3c0,14.17-14.17,14.17-14.17,14.17s-14.18,0-14.18-14.17V113.78a14.17,14.17,0,1,0-28.34,0v70.87s0,14.17-14.18,14.17S0,184.65,0,184.65V213Zm396.9,0,28.3,0H396.9Zm-28.39,0v0H340.16Zm-198.39,0,28.31,0H170.12Zm-56.55-.07,28.16.07v0H113.56S113.57,212.93,113.57,212.9ZM85,212.9s0,.06,0,.09H56.69Z" transform="translate(0 -99.61)"/></svg>