<svg id="Layer_1" data-name="Layer 1" xmlns="http://www.w3.org/2000/svg" xmlns:xlink="http://www.w3.org/1999/xlink" viewBox="0 0 454.54 51.07"><defs><style>.cls-1{stroke:#fff;stroke-miterlimit:10;fill:url(#linear-gradient);}</style><linearGradient id="linear-gradient" y1="201.74" x2="453.54" y2="201.74" gradientUnits="userSpaceOnUse"><stop offset="0" stop-color="#299de2"/><stop offset="1" stop-color="#2e3190"/></linearGradient></defs><title>BottomBanner</title><path class="cls-1" d="M453.54,199.36a57.52,57.52,0,0,1-14.16-.3c-11.69-1.72-18.31-6.5-28.27-11.31-1.53-.74-17.26-8.25-30.66-10.42-14.53-2.35-22.72,2.17-43.15,8-26.3,7.56-48.64,14-74.41,11.9-20.68-1.66-24-7.41-47.62-7.14-6.29.07-5.32.46-36.31,3.57-33,3.31-42.45,3.71-49.1,3.87-13,.32-23.49,0-29.17-.3-13-.59-23.37-1.67-35.71-3-17.38-1.83-17-2.25-23.52-2.68A154.88,154.88,0,0,0,0,194.6v32.17H453.54Z" transform="translate(0.5 -176.2)"/></svg>