<svg id="Layer_1" data-name="Layer 1" xmlns="http://www.w3.org/2000/svg" xmlns:xlink="http://www.w3.org/1999/xlink" viewBox="0 0 453.54 43.19"><defs><style>.cls-1{fill:url(#linear-gradient);}</style><linearGradient id="linear-gradient" y1="21.59" x2="453.54" y2="21.59" gradientUnits="userSpaceOnUse"><stop offset="0" stop-color="#2af0ff"/><stop offset="0.44" stop-color="#40a6f0"/><stop offset="0.82" stop-color="#506ce4"/><stop offset="1" stop-color="#5755df"/></linearGradient></defs><title>TopBanner</title><path class="cls-1" d="M453.54,42.33a97.48,97.48,0,0,1-18.87.67c-2.76-.17-12.39-.88-26.67-5.33-14.84-4.63-13.65-6.73-25-10S362.34,24.2,349.67,24A167.78,167.78,0,0,0,319,26c-9.86,1.59-9.85,2.54-28,6.67-14.05,3.19-24.95,5.1-30.33,6-13.41,2.23-20.56,3.42-30.67,4-9.66.55-21,1.13-35-1.34-3.71-.65-6.77-1.38-28.67-8.66-33-11-32.79-11.58-39.33-12.67a115.91,115.91,0,0,0-39.33.33c-7.91,1.48-7.72,2.36-26.34,7-13.25,3.31-19.87,5-27.66,6A139.23,139.23,0,0,1,0,33.67V0H453.54Z"/></svg>